<?xml version="1.0" encoding="UTF-8" standalone="no"?>
<!-- Created with Inkscape (http://www.inkscape.org/) -->

<svg
   width="297mm"
   height="162mm"
   viewBox="0 0 297 162"
   version="1.1"
   id="svg1"
   sodipodi:docname="Olivavderdaclara2.svg"
   inkscape:export-filename="Olivavderdaclara2.svg"
   inkscape:export-xdpi="96"
   inkscape:export-ydpi="96"
   inkscape:version="1.3.2 (091e20e, 2023-11-25, custom)"
   xmlns:inkscape="http://www.inkscape.org/namespaces/inkscape"
   xmlns:sodipodi="http://sodipodi.sourceforge.net/DTD/sodipodi-0.dtd"
   xmlns="http://www.w3.org/2000/svg"
   xmlns:svg="http://www.w3.org/2000/svg">
  <sodipodi:namedview
     id="namedview1"
     pagecolor="#ffffff"
     bordercolor="#000000"
     borderopacity="0.25"
     inkscape:showpageshadow="2"
     inkscape:pageopacity="0.0"
     inkscape:pagecheckerboard="0"
     inkscape:deskcolor="#d1d1d1"
     inkscape:document-units="mm"
     inkscape:zoom="0.48189506"
     inkscape:cx="486.62047"
     inkscape:cy="317.49651"
     inkscape:window-width="1554"
     inkscape:window-height="1020"
     inkscape:window-x="160"
     inkscape:window-y="0"
     inkscape:window-maximized="0"
     inkscape:current-layer="layer1" />
  <defs
     id="defs1" />
  <g
     inkscape:label="Capa 1"
     inkscape:groupmode="layer"
     id="layer1">
    <path
       fill-rule="evenodd"
       clip-rule="evenodd"
       d="m 179.45922,33.806344 c -17.45119,29.705387 -21.43246,44.601379 -45.1196,71.155896 l 0.32686,-3.67798 0.19101,-3.174674 0.12511,-3.42275 -0.17172,-5.025345 -0.4254,-3.960028 -0.53684,-3.313579 -0.57933,-3.260353 -0.63377,-3.054995 -0.72839,-3.306009 -0.37029,-1.649198 -1.11295,-5.053844 3.80003,-3.963819 c 16.57187,-20.144973 35.00982,-36.197685 51.12894,-41.933039 1.02252,6.200731 0.45446,6.930164 1.10364,12.853261 3.18641,29.075229 -9.36233,51.568047 -26.22337,79.642022 -9.95299,16.57739 -24.6384,20.9295 -32.65735,20.04571 -0.10502,-0.0107 -0.8849,-0.31553 -0.83635,-0.4116 0.0747,-0.14815 0.0571,-0.14949 0.15591,-0.30983 0.0702,-0.11385 0.10931,-0.21699 0.17012,-0.34283 0.41685,-0.86207 0.6309,-1.39727 1.12324,-2.40243 0.77793,-1.58826 1.49027,-3.69014 2.08578,-5.30457 0.62597,-1.69709 1.66802,-5.35326 2.04704,-7.02494 0.47204,-2.08181 0.6519,-2.92666 0.77843,-3.58435 0.008,-0.0466 0.94284,-0.31215 1.22775,-0.60998 20.60798,-21.546661 31.44313,-49.178888 45.13129,-78.910733 z"
       id="path5-8-1"
       sodipodi:nodetypes="cccccccccccccccscssssssssscc"
       style="fill:#a9b8a3;fill-opacity:1;fill-rule:evenodd;stroke-width:0.858997" />
    <path
       fill-rule="evenodd"
       clip-rule="evenodd"
       d="m 101.99284,20.743297 c 13.28082,12.020638 20.35637,27.074829 23.91497,43.871825 2.04048,9.632136 4.80331,19.475861 4.54123,29.151697 -0.48897,18.078351 -4.29918,35.453301 -16.87656,49.931491 -17.255788,19.86389 -44.011362,23.9944 -67.551647,9.69597 C 8.696347,130.72557 -9.6675248,78.821018 5.11334,37.756192 9.1712237,26.483936 14.792268,15.556243 25.234973,9.7138136 36.342656,3.4995087 48.194507,-4.0177173 62.233909,2.5314017 c 1.0511,0.4897476 2.349443,0.8023208 3.489163,0.7024215 15.751621,-1.3787443 26.771541,6.9392728 36.269768,17.5094738 z"
       id="path2-9-6"
       sodipodi:nodetypes="cccccccccc"
       style="fill:#f1f1e4;fill-opacity:1;stroke-width:0.708814" />
    <path
       fill-rule="evenodd"
       clip-rule="evenodd"
       fill="#ffffff"
       d="M 23.781759,104.41345 C -4.2139709,64.123566 15.037154,23.117075 26.622821,15.803307 c 2.648657,-1.67205 3.706748,-2.156665 6.665311,-2.479822 -1.027471,1.235855 -4.306869,3.166132 -6.569135,5.196441 -20.8729281,21.344026 -8.048981,60.991321 -2.937238,85.893524 z"
       id="path6-3-8"
       style="stroke-width:0.741278"
       sodipodi:nodetypes="cscsc" />
    <path
       style="font-size:106.667px;font-family:Palace;-inkscape-font-specification:Palace;letter-spacing:5.32438px;word-spacing:0px;white-space:pre;fill:#d9ddc6;fill-opacity:1;fill-rule:evenodd;stroke-width:1.6055"
       d="m 163.90459,94.072813 c -0.32711,-0.570007 -0.57245,-1.139988 -0.73603,-1.709995 -0.10903,-0.570008 -0.16341,-1.28251 -0.16341,-2.137508 0,-0.627016 0.0273,-1.168519 0.0817,-1.624509 0.10903,-0.513026 0.29985,-1.083006 0.57247,-1.71003 0.76329,-1.652987 1.90821,-2.906993 3.43483,-3.76199 1.58111,-0.854998 3.02589,-1.28251 4.33438,-1.28251 0.43617,0 0.84509,0.02867 1.22673,0.08546 1.69015,0.341999 2.86234,1.624509 3.5166,3.847503 0.16369,0.627017 0.24539,1.368024 0.24539,2.223003 0,0.912033 -0.0817,1.624535 -0.24539,2.137534 -0.59974,2.166012 -1.74469,3.933016 -3.43481,5.301012 -1.19946,0.968989 -2.50798,1.453483 -3.92551,1.453483 -0.27261,0 -0.5452,-0.02867 -0.81781,-0.08546 -1.74467,-0.17092 -3.10771,-1.083006 -4.08907,-2.73602 z m -14.72062,51.556697 c -1.19946,-1.99501 -1.99,-4.36053 -2.37165,-7.09652 -0.0547,-0.68403 -0.0817,-1.56753 -0.0817,-2.65054 v -1.70999 c 0.10904,-1.88102 0.27259,-3.3345 0.49069,-4.3605 0,-0.17092 0.0544,-0.39901 0.16368,-0.68403 0.0544,-0.342 0.10904,-0.684 0.16342,-1.02599 0.59972,-3.02101 1.6356,-6.35552 3.10768,-10.00354 0.32713,-0.855 0.92687,-2.10901 1.7992,-3.76199 0.81779,-1.71003 1.71739,-3.39154 2.69878,-5.04453 0.98137,-1.65301 1.90822,-2.82151 2.78057,-3.50553 1.03589,-0.79799 2.07177,-1.197 3.10768,-1.197 0.38162,0 0.76329,0.0571 1.14494,0.17092 2.67151,0.79799 4.11631,2.73597 4.33441,5.81399 0,1.48201 -0.57247,3.64802 -1.71742,6.49803 -1.09042,2.85001 -2.26261,5.64304 -3.51659,8.37903 -0.65426,1.42501 -1.19946,2.65051 -1.63563,3.67651 -0.81781,1.99501 -1.47204,3.99002 -1.96275,5.98503 -0.43617,1.93801 -0.65424,3.50551 -0.65424,4.7025 v 0.76952 c 0.10904,1.083 0.5452,1.6245 1.3085,1.6245 0.21807,0 0.46343,-0.0571 0.73602,-0.17091 1.19946,-0.39899 3.1077,-2.16602 5.72469,-5.30102 2.50796,-3.02101 4.77058,-6.04202 6.78785,-9.06305 2.01728,-3.078 4.00728,-6.21302 5.97004,-9.40503 0.65426,-1.026 1.30849,-2.0805 1.96276,-3.16351 1.30849,-1.938 2.26259,-2.90699 2.86233,-2.90699 0.59974,-0.0571 0.95412,-0.0855 1.06315,-0.0855 0.87234,0 1.49932,0.45599 1.88097,1.368 0.10904,0.342 0.16342,0.7125 0.16342,1.11151 0,0.79799 -0.21807,1.65301 -0.65423,2.56499 -0.70876,1.25401 -1.44481,2.56502 -2.2081,3.93302 -2.28986,4.218 -4.71606,8.43604 -7.27853,12.65404 -2.56248,4.16103 -5.31578,7.86604 -8.2599,11.11505 -1.74466,1.881 -3.54387,3.27753 -5.39756,4.18953 -1.79921,0.85497 -3.43484,1.28249 -4.90688,1.28249 -0.59975,0 -1.22674,-0.0571 -1.88097,-0.17092 -2.12631,-0.39898 -4.03455,-1.9095 -5.72472,-4.5315 z m 33.30363,-3.24902 c -0.0546,-0.45599 -0.0817,-1.11151 -0.0817,-1.96651 v -2.3085 -1.79551 c 0,-1.25398 0.0273,-2.30851 0.0817,-3.16351 0.27259,-3.135 0.73603,-6.52651 1.39026,-10.17454 0.59974,-3.64802 1.30852,-6.95402 2.12631,-9.91805 0.16369,-0.513 0.38167,-1.197 0.65426,-2.052 0.21807,-0.85499 0.46344,-1.70999 0.73602,-2.56499 0.49071,-1.65301 1.00864,-3.19203 1.55387,-4.61701 0.5452,-1.42503 0.98136,-2.45101 1.3085,-3.07802 0.59971,-0.969017 1.30849,-1.653015 2.1263,-2.052023 0.70878,-0.28499 1.39029,-0.427485 2.04452,-0.427485 0.92688,0 1.77194,0.28499 2.53523,0.854998 1.36302,0.96899 2.28989,2.30851 2.78058,4.01853 0.10903,0.39898 0.16341,0.79799 0.16341,1.197 0.0547,0.34199 0.0817,0.88347 0.0817,1.62448 -0.0547,0.62701 -0.13636,1.31101 -0.24539,2.05202 -0.10904,0.74101 -0.32713,1.767 -0.65424,3.07799 -0.32713,1.31102 -0.81781,3.16353 -1.47207,5.55753 -0.76327,2.79302 -1.52659,5.95653 -2.28986,9.49054 -0.7633,3.47702 -1.30853,6.32703 -1.63563,8.55003 -0.21807,1.254 -0.40892,2.56502 -0.57247,3.93301 -0.16369,1.31102 -0.2454,2.16602 -0.2454,2.565 v 0.51302 l 0.49071,-0.59851 c 1.3085,-1.48201 3.02591,-3.81902 5.15222,-7.01103 2.12631,-3.19201 4.00728,-6.15601 5.64291,-8.89203 0.10903,-0.22798 0.27261,-0.513 0.49068,-0.85497 0.38165,-0.74101 0.7633,-1.42504 1.14495,-2.05203 0.27261,-0.45601 0.57247,-0.99752 0.89957,-1.6245 0.38168,-0.62702 0.73605,-1.197 1.06318,-1.71 0.98137,-1.71002 1.77191,-3.13503 2.37165,-4.27504 0.21807,-0.39898 0.43617,-0.85497 0.65426,-1.36797 0.81779,-1.82404 1.8537,-3.61955 3.10768,-5.38655 1.25398,-1.82399 2.80782,-2.84999 4.66154,-3.078 h 0.40892 c 0.98136,0 1.82645,0.342 2.5352,1.026 0.87233,0.684 1.3085,1.7385 1.3085,3.16351 0,0.513 -0.0544,0.96901 -0.16342,1.36802 -0.0544,0.342 -0.21807,0.82649 -0.49071,1.45351 -0.21807,0.62699 -0.59972,1.51046 -1.14492,2.65048 -0.65426,1.48201 -1.25398,2.96403 -1.79918,4.44604 -0.49071,1.42498 -0.79056,2.5935 -0.8996,3.5055 -0.0547,0.39899 -0.0817,0.74101 -0.0817,1.026 0,0.74101 0.16369,1.28251 0.49069,1.62451 0.32713,0.39898 0.84508,0.59849 1.55383,0.59849 0.38165,0 0.81782,-0.0571 1.3085,-0.17092 0.76329,-0.17092 1.47207,-0.39898 2.12633,-0.68398 0.70876,-0.28501 1.49932,-0.68402 2.37166,-1.19702 0.65426,-0.39901 1.19946,-0.76951 1.63562,-1.11151 0.49069,-0.342 1.17219,-0.94051 2.04452,-1.79548 1.63563,-1.48201 3.40756,-3.64803 5.31578,-6.49804 0.87235,-1.254 1.77198,-1.85251 2.69883,-1.79551 0.92682,0 1.55379,0.3135 1.88089,0.94052 0.32713,0.62701 0.49071,1.19699 0.49071,1.70999 0,0.513 -0.13636,1.11151 -0.40889,1.79551 -1.25398,2.50801 -3.13495,5.07303 -5.64288,7.69503 -2.45344,2.565 -4.96143,4.58851 -7.5239,6.0705 -1.19946,0.68402 -2.26262,1.19702 -3.18947,1.53902 -0.87233,0.342 -1.85369,0.57001 -2.94412,0.68403 -0.49068,0.0571 -1.00864,0.0855 -1.55386,0.0855 h -0.81779 c -0.92687,0 -1.69014,-0.0855 -2.28989,-0.25638 -2.56247,-0.79802 -4.38892,-2.39402 -5.47935,-4.78804 -0.16369,-0.342 -0.29986,-0.62699 -0.40889,-0.855 -0.10904,-0.22798 -0.19075,-0.342 -0.2454,-0.342 l -0.16368,0.342 c -0.16342,0.17092 -0.32711,0.42751 -0.49069,0.76951 l -1.2267,2.13751 c -0.21807,0.342 -0.49071,0.76951 -0.81784,1.28251 -0.27259,0.513 -0.5452,1.026 -0.81779,1.53899 -0.70878,1.31099 -2.2081,3.93302 -4.49799,7.86604 -1.03588,1.70999 -2.15358,3.477 -3.35304,5.30101 -1.14492,1.82399 -1.99,3.04951 -2.5352,3.6765 -2.12631,2.56502 -4.0618,3.84753 -5.80646,3.84753 h -0.40892 c -1.85372,-0.22798 -3.38032,-1.3965 -4.57978,-3.50553 -1.25395,-2.109 -2.07179,-4.64549 -2.45341,-7.60952 z m 84.33511,13.68004 c -4.14358,-1.254 -6.65152,-5.47201 -7.52385,-12.65404 -0.16368,-1.25398 -0.24539,-2.82151 -0.24539,-4.7025 0,-1.881 0.0817,-3.56252 0.24539,-5.04453 0.27262,-2.50801 0.65424,-4.90203 1.14495,-7.18203 0.10903,-0.39898 0.19074,-0.74101 0.24539,-1.026 l 0.0817,-0.42751 -0.0817,0.17092 c -0.38162,0.79801 -1.39026,2.56502 -3.02591,5.30104 -1.6356,2.67901 -3.59838,5.4435 -5.88827,8.29351 -3.65288,4.21801 -6.81512,6.32704 -9.48663,6.32704 -0.32711,0 -0.68146,-0.0287 -1.06316,-0.0855 -2.78054,-0.684 -4.1708,-4.161 -4.1708,-10.43103 v -1.11151 c 0.21807,-5.757 1.66287,-11.48552 4.33441,-17.18554 0.49063,-1.08301 1.09043,-2.25153 1.79918,-3.50553 0.76332,-1.31099 1.44477,-2.4225 2.04449,-3.33451 3.38034,-4.95901 7.16952,-7.83753 11.36763,-8.63554 0.65423,-0.11386 1.28125,-0.17092 1.88096,-0.17092 2.18083,0 4.00731,0.79799 5.47936,2.39402 1.19946,1.25398 1.96278,2.73599 2.28991,4.44599 0.10904,0.45601 0.19075,0.7125 0.2454,0.76951 l 0.0817,0.17092 c 0.0547,0 0.0817,-0.0287 0.0817,-0.0855 0.0547,-0.0571 0.13636,-0.17092 0.2454,-0.342 0.16342,-0.22798 0.29983,-0.42751 0.40884,-0.59851 0.16368,-0.22798 0.3817,-0.54151 0.65432,-0.94049 0.27262,-0.45601 0.51793,-0.88353 0.73603,-1.28251 0.92685,-1.53902 1.74461,-2.67903 2.45344,-3.42001 0.70872,-0.79802 1.44477,-1.28251 2.2081,-1.45351 0.43611,-0.11386 0.84503,-0.17092 1.22665,-0.17092 0.5998,0 1.17224,0.14252 1.71747,0.42748 0.98137,0.51303 1.71739,1.31102 2.2081,2.39402 0.38162,0.855 0.57244,1.88102 0.57244,3.07802 0,0.62702 -0.0546,1.31099 -0.16368,2.052 -0.10904,0.79801 -0.38162,1.82401 -0.81776,3.07801 -0.3817,1.19703 -1.06316,3.16351 -2.04457,5.89953 -2.45342,6.38402 -4.19811,11.40004 -5.23396,15.04804 -1.03594,3.59102 -1.63566,6.81153 -1.79918,9.66154 -0.0546,0.68402 -0.0817,1.33949 -0.0817,1.96651 0,0.62701 0.0276,1.2255 0.0817,1.79551 0.10903,1.14001 0.29983,1.9665 0.57244,2.4795 0,0.11386 0.0276,0.17092 0.0817,0.17092 h 0.2454 c 0.0547,0 0.16368,-0.0287 0.3271,-0.0855 2.61697,-1.19702 6.13359,-5.24403 10.54979,-12.14105 2.83511,-4.50302 6.21537,-10.65903 10.14086,-18.46808 0.81784,-1.596 1.47208,-2.622 1.96279,-3.07799 0.49065,-0.51303 1.03585,-0.76951 1.6356,-0.76951 h 0.3271 c 0.87233,0.11412 1.49937,0.62701 1.881,1.53899 0.16368,0.28499 0.24539,0.59852 0.24539,0.94051 0,0.342 -0.10903,0.8265 -0.32721,1.45351 -0.21807,0.56998 -0.57242,1.42498 -1.06313,2.565 -0.49065,1.14001 -1.17219,2.6505 -2.04452,4.53152 -1.25395,2.62201 -2.3444,4.81652 -3.27125,6.58353 -0.87233,1.767 -1.82648,3.5055 -2.86234,5.2155 -2.94412,5.07303 -5.42483,8.94904 -7.44211,11.62807 -1.96278,2.67899 -3.81648,4.674 -5.56116,5.98501 -1.96271,1.48199 -3.87098,2.223 -5.72467,2.223 -0.65424,0 -1.28126,-0.0855 -1.88098,-0.25665 z M 249.158,132.80446 c 1.19946,-1.36799 2.31711,-2.73602 3.35296,-4.10404 1.09046,-1.42498 2.56253,-3.44849 4.4162,-6.0705 0.98145,-1.36799 1.77199,-2.47953 2.3717,-3.3345 0.65424,-0.855 1.11765,-1.51052 1.39026,-1.96651 0.32713,-0.513 0.51793,-0.855 0.57245,-1.02602 0.10903,-0.22798 0.16368,-0.39898 0.16368,-0.51297 v -0.17092 -0.94051 c 0.0546,-0.513 0.10904,-1.08298 0.16342,-1.71 v -1.11148 c 0,-0.62702 -0.0271,-1.14002 -0.0817,-1.53903 -0.16342,-0.62701 -0.43611,-1.14001 -0.81781,-1.53899 -0.21807,-0.28502 -0.38162,-0.45602 -0.49066,-0.513 -0.10903,-0.0571 -0.19074,-0.0855 -0.24539,-0.0855 l -0.32711,0.0855 c -0.98136,0.11412 -2.07179,0.79799 -3.27125,2.05199 -2.88963,3.07802 -5.47935,8.80655 -7.76916,17.18558 -0.27261,1.08298 -0.57253,2.2515 -0.89963,3.5055 -0.27261,1.25401 -0.49065,2.39402 -0.65423,3.42002 l -0.0817,0.59848 0.57244,-0.51299 z"
       id="text7-4-0-2"
       aria-label="iva"
       sodipodi:nodetypes="scscccsccsccscssscsccccccscsscccccscsccccccscscccccscsssscscccccsccsccccssscccsccscccccccccscscccccscscccccccsscscccssccscccccccccsccssscsccscsccscscccccscccccccccccsscscccccsscssccccsccscscccccsssccccccscccsccsccccccccc" />
  </g>
</svg>
