<?xml version="1.0" encoding="UTF-8" standalone="no"?>
<!-- Created with Inkscape (http://www.inkscape.org/) -->

<svg
   width="210mm"
   height="182mm"
   viewBox="0 0 210 182"
   version="1.1"
   id="svg1"
   xmlns:inkscape="http://www.inkscape.org/namespaces/inkscape"
   xmlns:sodipodi="http://sodipodi.sourceforge.net/DTD/sodipodi-0.dtd"
   xmlns="http://www.w3.org/2000/svg"
   xmlns:svg="http://www.w3.org/2000/svg">
  <sodipodi:namedview
     id="namedview1"
     pagecolor="#ffffff"
     bordercolor="#000000"
     borderopacity="0.25"
     inkscape:showpageshadow="2"
     inkscape:pageopacity="0.0"
     inkscape:pagecheckerboard="0"
     inkscape:deskcolor="#d1d1d1"
     inkscape:document-units="mm" />
  <defs
     id="defs1" />
  <g
     inkscape:label="Capa 1"
     inkscape:groupmode="layer"
     id="layer1">
    <path
       fill-rule="evenodd"
       clip-rule="evenodd"
       d="m 201.58238,37.973881 c -19.60251,33.367374 -24.07458,50.099693 -50.6818,79.927759 l 0.36716,-4.13138 0.21456,-3.56604 0.14053,-3.8447 -0.19289,-5.64485 -0.47784,-4.448207 -0.60302,-3.722068 -0.65075,-3.662275 -0.7119,-3.431611 -0.81818,-3.713564 -0.41594,-1.852508 -1.25015,-5.676861 4.26848,-4.452467 c 18.6148,-22.628377 39.32572,-40.660016 57.43195,-47.102406 1.14858,6.965137 0.51049,7.784493 1.2397,14.43777 3.57922,32.659525 -10.51649,57.925187 -29.45611,89.460037 -11.17996,18.62099 -27.67574,23.50962 -36.68324,22.51688 -0.11796,-0.012 -0.99399,-0.35443 -0.93945,-0.46235 0.0839,-0.16641 0.0641,-0.16791 0.17513,-0.34802 0.0788,-0.12789 0.12279,-0.24374 0.19109,-0.38509 0.46824,-0.96835 0.70868,-1.56952 1.26171,-2.6986 0.87383,-1.78405 1.67399,-4.14505 2.34291,-5.9585 0.70314,-1.9063 1.87365,-6.01319 2.29939,-7.89095 0.53023,-2.33845 0.73227,-3.28745 0.87439,-4.02622 0.009,-0.0523 1.05907,-0.35063 1.37911,-0.68517 23.14846,-24.20286 35.31933,-55.241502 50.69493,-88.638595 z"
       id="path5-8-1"
       sodipodi:nodetypes="cccccccccccccccscssssssssscc"
       style="fill:#698c72;fill-opacity:1;fill-rule:evenodd;stroke-width:0.964891" />
    <path
       fill-rule="evenodd"
       clip-rule="evenodd"
       d="m 114.56619,23.300463 c 14.91803,13.502504 22.86585,30.412524 26.86314,49.280204 2.29202,10.819548 5.39544,21.876781 5.10106,32.745423 -0.54925,20.30699 -4.82917,39.82387 -18.95706,56.08688 -19.38302,22.31265 -49.436943,26.95235 -75.879198,10.89126 C 9.7684048,146.84099 -10.859306,88.537813 5.7436963,42.410653 10.301822,29.74879 16.615811,17.473966 28.345859,10.911301 40.822861,3.9309168 54.13577,-4.5130085 69.905904,2.8434647 71.08658,3.3935861 72.544978,3.7446921 73.825199,3.6324779 91.518629,2.0837668 103.89705,11.427202 114.56619,23.300463 Z"
       id="path2-9-6"
       sodipodi:nodetypes="cccccccccc"
       style="fill:#698c72;fill-opacity:1;stroke-width:0.796194" />
    <path
       fill-rule="evenodd"
       clip-rule="evenodd"
       fill="#ffffff"
       d="M 26.713497,117.2852 C -4.7334554,72.028509 16.890886,25.966873 29.904796,17.751487 c 2.975175,-1.878174 4.163704,-2.422531 7.486989,-2.785526 -1.154134,1.388207 -4.837806,3.556443 -7.378957,5.837041 -23.4460742,23.975249 -9.041233,68.51013 -3.299331,96.482198 z"
       id="path6-3-8"
       style="stroke-width:0.83266"
       sodipodi:nodetypes="cscsc" />
  </g>
</svg>
