<?xml version="1.0" encoding="UTF-8" standalone="no"?>
<!-- Created with Inkscape (http://www.inkscape.org/) -->

<svg
   width="210mm"
   height="183mm"
   viewBox="0 0 210 183"
   version="1.1"
   id="svg1"
   xmlns:inkscape="http://www.inkscape.org/namespaces/inkscape"
   xmlns:sodipodi="http://sodipodi.sourceforge.net/DTD/sodipodi-0.dtd"
   xmlns="http://www.w3.org/2000/svg"
   xmlns:svg="http://www.w3.org/2000/svg">
  <sodipodi:namedview
     id="namedview1"
     pagecolor="#ffffff"
     bordercolor="#000000"
     borderopacity="0.25"
     inkscape:showpageshadow="2"
     inkscape:pageopacity="0.0"
     inkscape:pagecheckerboard="0"
     inkscape:deskcolor="#d1d1d1"
     inkscape:document-units="mm" />
  <defs
     id="defs1" />
  <g
     inkscape:label="Capa 1"
     inkscape:groupmode="layer"
     id="layer1">
    <path
       fill-rule="evenodd"
       clip-rule="evenodd"
       d="M 201.58238,37.973881 C 181.97987,71.34125 177.5078,88.07357 150.90058,117.90164 l 0.36716,-4.13138 0.21456,-3.56604 0.14053,-3.8447 -0.19289,-5.64485 -0.47784,-4.44821 -0.60302,-3.72207 -0.65075,-3.66227 -0.7119,-3.43161 -0.81818,-3.71357 -0.41594,-1.8525 -1.25015,-5.67686 4.26848,-4.45247 c 18.6148,-22.628378 39.32572,-40.660017 57.43195,-47.102407 1.14858,6.965137 0.51049,7.784493 1.2397,14.43777 3.57922,32.659527 -10.51649,57.925187 -29.45611,89.460037 -11.17996,18.62099 -27.67574,23.50962 -36.68324,22.51688 -0.11796,-0.012 -0.99399,-0.35443 -0.93945,-0.46235 0.0839,-0.16641 0.0641,-0.16791 0.17513,-0.34802 0.0788,-0.12789 0.12279,-0.24374 0.19109,-0.38509 0.46824,-0.96835 0.70868,-1.56952 1.26171,-2.6986 0.87383,-1.78405 1.67399,-4.14505 2.34291,-5.9585 0.70314,-1.9063 1.87365,-6.01319 2.29939,-7.89095 0.53023,-2.33845 0.73227,-3.28745 0.87439,-4.02622 0.009,-0.0523 1.05907,-0.35063 1.37911,-0.68517 23.14846,-24.20286 35.31933,-55.2415 50.69493,-88.638595 z"
       id="path5-8-1"
       sodipodi:nodetypes="cccccccccccccccscssssssssscc"
       style="fill:#a9b8a3;fill-opacity:1;fill-rule:evenodd;stroke-width:0.964891" />
    <path
       fill-rule="evenodd"
       clip-rule="evenodd"
       d="m 114.56619,23.300463 c 14.91803,13.502504 22.86585,30.412527 26.86314,49.280207 2.29202,10.81954 5.39544,21.87678 5.10106,32.74542 -0.54925,20.30699 -4.82917,39.82387 -18.95706,56.08688 -19.38302,22.31265 -49.436943,26.95235 -75.879198,10.89126 C 9.768405,146.84099 -10.859306,88.53781 5.743696,42.410653 10.301822,29.74879 16.615811,17.473966 28.345859,10.911301 40.822861,3.9309167 54.13577,-4.5130083 69.905904,2.8434647 c 1.180676,0.550121 2.639074,0.901227 3.919295,0.789013 17.693431,-1.548711 30.071851,7.7947243 40.740991,19.6679853 z"
       id="path2-9-6"
       sodipodi:nodetypes="cccccccccc"
       style="fill:#f1f1e4;fill-opacity:1;stroke-width:0.796194" />
    <path
       fill-rule="evenodd"
       clip-rule="evenodd"
       fill="#ffffff"
       d="M 26.713497,117.2852 C -4.7334554,72.02851 16.890886,25.966873 29.904796,17.751487 32.879971,15.873313 34.0685,15.328956 37.391785,14.965961 36.237651,16.354168 32.553979,18.522404 30.012828,20.803002 6.566754,44.778251 20.971595,89.31313 26.713497,117.2852 Z"
       id="path6-3-8"
       style="stroke-width:0.83266"
       sodipodi:nodetypes="cscsc" />
  </g>
</svg>
